<svg width="512" height="512" viewBox="0 0 512 512" xmlns="http://www.w3.org/2000/svg">
    <rect width="512" height="512" rx="64" fill="#1a1a2e"/>
    
    <g transform="translate(256, 256)">
        <!-- Outer circles -->
        <circle cx="0" cy="0" r="200" fill="none" stroke="#d4c4a8" stroke-width="1" opacity="0.2"/>
        <circle cx="0" cy="0" r="180" fill="none" stroke="#d4c4a8" stroke-width="1.5" opacity="0.35"/>
        
        <!-- Triangle pointing down -->
        <path d="M0 -140 L122 88 L-122 88 Z" fill="none" stroke="#d4c4a8" stroke-width="2" opacity="0.5"/>
        
        <!-- Horizontal line through triangle -->
        <line x1="-78" y1="25" x2="78" y2="25" stroke="#d4c4a8" stroke-width="1.5" opacity="0.4"/>
        
        <!-- Bear nose in center -->
        <g stroke="#d4c4a8" fill="none">
            <!-- Main nose outline -->
            <path d="M-56 -50 
                     Q-70 -8 -52 38 
                     Q-32 78 0 88 
                     Q32 78 52 38 
                     Q70 -8 56 -50 
                     Q35 -74 0 -78 
                     Q-35 -74 -56 -50" 
                  stroke-width="4"/>
            
            <!-- Bridge highlight -->
            <path d="M-26 -62 Q0 -74 26 -62" stroke-width="1.5" opacity="0.5"/>
            
            <!-- Cross-hatching - left side -->
            <g stroke-width="1.25" opacity="0.45">
                <line x1="-48" y1="-32" x2="-26" y2="-56"/>
                <line x1="-44" y1="-14" x2="-22" y2="-38"/>
                <line x1="-38" y1="4" x2="-14" y2="-22"/>
                <line x1="-34" y1="22" x2="-8" y2="-4"/>
            </g>
            
            <!-- Cross-hatching - right side -->
            <g stroke-width="1.25" opacity="0.45">
                <line x1="48" y1="-32" x2="26" y2="-56"/>
                <line x1="44" y1="-14" x2="22" y2="-38"/>
                <line x1="38" y1="4" x2="14" y2="-22"/>
                <line x1="34" y1="22" x2="8" y2="-4"/>
            </g>
            
            <!-- Nose pad -->
            <ellipse cx="0" cy="32" rx="32" ry="24" stroke-width="3"/>
            
            <!-- Central septum line -->
            <line x1="0" y1="8" x2="0" y2="56" stroke-width="1.5" opacity="0.6"/>
            
            <!-- Nostrils - filled -->
            <ellipse cx="-12" cy="32" rx="9" ry="7" fill="#d4c4a8" stroke="none" opacity="0.85"/>
            <ellipse cx="12" cy="32" rx="9" ry="7" fill="#d4c4a8" stroke="none" opacity="0.85"/>
            
            <!-- Inner nostril depth -->
            <ellipse cx="-12" cy="34" rx="5" ry="4" fill="#1a1a2e" stroke="none"/>
            <ellipse cx="12" cy="34" rx="5" ry="4" fill="#1a1a2e" stroke="none"/>
        </g>
        
        <!-- Radiating lines -->
        <g stroke="#d4c4a8" stroke-width="1" opacity="0.3">
            <line x1="0" y1="-95" x2="0" y2="-165"/>
            <line x1="0" y1="100" x2="0" y2="165"/>
            <line x1="-95" y1="0" x2="-165" y2="0"/>
            <line x1="95" y1="0" x2="165" y2="0"/>
            <line x1="-66" y1="-66" x2="-120" y2="-120"/>
            <line x1="66" y1="-66" x2="120" y2="-120"/>
            <line x1="-66" y1="66" x2="-120" y2="120"/>
            <line x1="66" y1="66" x2="120" y2="120"/>
        </g>
        
        <!-- Alchemical symbols -->
        <g fill="#d4c4a8" font-family="serif" text-anchor="middle">
            <text x="0" y="-180" font-size="24" opacity="0.6">☿</text>
            <text x="188" y="8" font-size="24" opacity="0.6">☽</text>
            <text x="-188" y="8" font-size="24" opacity="0.6">☉</text>
            <circle cx="0" cy="180" r="10" fill="none" stroke="#d4c4a8" stroke-width="1.5" opacity="0.5"/>
            <line x1="-14" y1="180" x2="14" y2="180" stroke="#d4c4a8" stroke-width="1.5" opacity="0.5"/>
        </g>
        
        <!-- Decorative dots -->
        <g fill="#d4c4a8" opacity="0.4">
            <circle cx="-122" cy="88" r="3.5"/>
            <circle cx="122" cy="88" r="3.5"/>
            <circle cx="0" cy="-140" r="3.5"/>
            <circle cx="-78" cy="25" r="2.5"/>
            <circle cx="78" cy="25" r="2.5"/>
        </g>
    </g>
</svg>
